**ABCDEFGHIJKLMNOPQRSTUVWXYZabcdefghijklmnopqrstuvwxyz**************************
**PARASOLID !"#$%&'()*+,-./:;<=>?@[\]^_`{|}~0123456789**************************
**PART1;
MC=unknown;
MC_MODEL=unknown;
MC_ID=unknown;
OS=unknown;
OS_RELEASE=unknown;
FRU=Parasolid 37.1.212;
APPL=Onshape;
SITE=unknown;
USER=unknown;
FORMAT=text;
GUISE=transmit;
KEY=BTGapi::writeModels_.xmt;
FILE=BTGapi::writeModels_.xmt;
DATE=2026-06-02T12:09:24 (UTC);
**PART2;
SCH=SCH_3701212_37102;
USFLD_SIZE=0;
**PART3;
**END_OF_HEADER*****************************************************************
T51 : TRANSMIT FILE created by modeller version 370121223 SCH_3701212_37102_1300
6239 0 10 21 CCCCI7 lattice222 0 CCCI4 mesh1006 0 I8 polyline1008 0 CCCCCCCCCCA1
6 mesh_offset_data206 0 Z1 17 2 3 0 0 0 0 0 0 0 0 1e3 1e-8 0 0 0 1 0 1 4 0 81 25
5 1 2 2 5 1 6 0 0 0 7 70 11 CI9 list_type0 0 1 uI10 notransmit0 0 1 lCCCDCCDI12
 finger_index0 0 1 dI12 finger_block1012 0 CZ3 0 4 T1 0 0 3 20 1 8 8 11 255 4 15
 9 1 10 11 1 12 0 0 0 81 1 9 17 13 4 0 0 14 0 15 12 36 CCCI7 lattice222 0 CCCI4
 mesh1006 0 I8 polyline1008 0 CCCCCCCDI5 owner1040 0 CCCI16 boundary_lattice222
 0 CCCI13 boundary_mesh1006 0 I17 boundary_polyline1008 0 CCCA16 index_map_offse
t0 0 1 dA9 index_map82 0 A17 node_id_index_map82 0 A20 schema_embedding_map82 0
 A5 child12 0 A14 lowest_node_id0 0 1 dA16 mesh_offset_data206 0 Z10 686 16 17 0
 0 0 0 0 0 0 1e3 1e-8 4 18 19 1 0 1 2 20 0 21 22 23 0 0 24 25 27 0 0 0 0 0 0 0 1
00 10 CCCCCCCCCA9 precision229 0 Z11 16 4 0 0 .731542665779393 .039373926308163
 -.680657786315165 -.396285403598509 .836931141216184 -.377497210264318 .5548001
50539949 .545890061083417 .62785415039736 .1058868585786192 .1586415881493095 .0
46205118627664 1 3 ?0 11 12 12 14 1 18 30 1 29 4 0 0 81 1 14 14 13 12 0 0 26 9 2
8 12 18 37 34 35 0 0 0 0 0 0 0 1e3 1e-8 12 32 10 1 0 1 2 33 0 31 38 0 0 0 40 36
 0 0 0 0 0 0 0 0 100 30 13 12 0 0 .732190963025887 -.0245228789452449 -.68065778
6315168 -.3218473075032795 .86828000489217 -.3774972102643195 .600258864421104 .
495467921779696 .627854150397362 .10588685857862 .1586415881493095 .046205118627
6631 1 3 ?0 11 29 9 26 1 39 37 1 41 12 0 0 81 1 26 11 13 29 0 0 45 14 43 12 39 1
56 42 44 0 0 0 0 0 0 0 1e3 1e-8 29 19 0 1 0 1 2 46 0 50 48 0 0 0 47 49 0 0 0 0 0
 0 0 0 100 37 10 29 0 0 1 0 0 0 1 0 0 0 1 -.04052263125777245 .0774419382214546
 -.0487434536218643 1 1 ?0 11 41 6 45 1 19 51 1 55 29 0 0 81 1 45 8 13 41 0 0 52
 26 53 12 19 432 54 57 0 0 0 0 0 0 0 1e3 1e-8 41 10 39 1 0 1 2 60 0 59 56 58 0 0
 61 62 64 0 0 0 0 0 0 0 100 51 7 41 0 0 .874509398866315 -.485008568269139 33072
55571255635e-43 .485008568269139 .874509398866314 2222883600173125e-41 -11068523
17255194e-41 -192795923176414e-40 1 -.0405226312577724 .0774419382214547 -.04874
34536218643 1 3 ?0 11 55 3 52 1 32 63 1 0 41 0 0 81 1 52 5 13 55 0 0 0 45 65 12
 32 526 67 70 0 0 0 0 0 0 0 1e3 1e-8 55 0 18 1 0 1 2 69 0 66 68 72 0 0 75 74 71
 0 0 0 0 0 0 0 100 63 4 55 0 0 .549064355639716 -.485008568269139 -.680657786315
167 .304514642566062 .874509398866314 -.3774972102643195 .778331013020047 201751
463038691e-31 .627854150397362 .116028659594716 .164266296582248 .03685009178674
23 1 3 ?0 81 1 67 526 5 32 73 0 0 0 76 70 70 0 4 T32 0 0 3 20 1 80 80 13 255 69
 84 0 32 0 77 0 0 78 0 50 255 66 199 0 77 79 0 0 +-693889390390723e-32 .02 .31 0
 0 -1 -1 0 0 30 255 68 298 0 74 81 0 0 +.015 0 .28 0 0 1 29 255 72 292 0 71 85 0
 -.015 0 .28 19 9 CCCCCCI5 frame230 0 CA5 owner12 0 Z75 83 0 32 78 0 83 0 V0 16
 255 74 296 0 ?82 0 84 68 0 0 32 18 255 71 290 0 89 0 90 72 ?32 17 255 89 0 87 8
8 88 71 86 93 0 95 -18 90 77 0 91 71 94 92 ?32 17 91 0 96 100 98 90 97 99 0 101
 -18 94 67 0 105 90 103 102 ?32 29 92 79 0 90 102 104 .03 .02 .31 29 102 69 0 94
 106 92 .03 .02 .23 29 104 178 0 110 92 107 -.03 0 .31 18 110 165 0 108 109 112
 104 ?32 29 107 177 0 109 104 115 -.03 0 .23 18 109 161 0 114 111 110 107 ?32 29
 115 176 0 111 107 85 .03 0 .23 18 111 157 0 113 116 109 115 ?32 29 85 175 0 116
 115 72 .03 0 .31 18 116 153 0 98 117 111 85 ?32 17 98 0 96 91 119 116 118 120 0
 97 +18 117 52 0 122 103 116 125 ?32 17 122 0 124 121 123 117 108 127 0 130 -18
 103 62 0 129 94 117 106 ?32 29 125 54 0 117 126 106 -.03 .02 .31 29 126 380 0 1
12 128 125 -.015 0 .31 29 106 64 0 103 125 102 -.03 .02 .23 18 112 345 0 131 110
 135 126 ?32 29 128 381 0 135 132 126 .015 918485099360515e-33 .31 18 135 348 0
 82 112 133 128 ?32 29 132 383 0 133 0 128 .015 0 .28 18 133 346 0 88 135 0 132
 ?32 17 88 0 87 89 89 133 134 136 0 86 -15 255 87 368 0 88 140 0 17 134 0 138 13
7 139 71 88 136 0 0 +16 136 291 0 ?134 84 127 144 0 0 32 17 86 0 145 82 95 133 8
9 93 0 139 +15 145 364 0 86 142 0 17 82 0 145 131 86 135 139 74 0 119 +17 95 0 1
45 86 131 71 137 84 0 134 +16 93 322 0 ?86 120 143 141 0 0 32 17 139 0 138 134 1
18 133 82 74 0 0 -15 138 297 0 139 148 150 17 118 0 138 139 146 135 98 120 0 0 -
17 146 0 138 118 149 116 147 151 0 0 -16 120 283 0 ?98 155 93 153 155 155 32 16
 155 149 0 ?152 154 120 153 120 120 32 30 153 174 0 155 156 160 0 +-693889390390
723e-32 0 .31 1 0 0 31 255 156 49 0 158 157 153 0 +-1040834085586084e-32 .02 .23
 0 -1 0 0 0 -1 .03 30 160 173 0 154 153 159 0 +-.03 0 .3 0 0 -1 16 154 143 0 ?16
1 151 155 160 0 0 32 30 159 172 0 151 160 165 0 +.03 0 .26 1156482317317872e-31
 0 -1 16 151 137 0 ?147 162 154 159 0 0 32 31 165 171 0 162 159 163 0 +-86736173
7988404e-32 0 .23 0 -1 0 0 0 -1 .0125 16 162 133 0 ?164 167 151 165 0 0 32 31 16
3 170 0 167 165 170 0 +-1040834085586084e-32 0 .23 0 -1 0 0 0 -1 .03 16 167 129
 0 ?149 169 162 163 0 0 32 30 170 200 0 99 163 166 0 +.03 .02 .31 0 -1 0 16 99 1
79 0 ?97 168 158 170 0 0 32 30 166 201 0 168 170 171 0 +.03 .02 .23 0 -1 0 16 16
8 180 0 ?113 172 99 166 0 0 32 30 171 202 0 172 166 174 0 +-.03 .02 .23 0 -1 0 1
6 172 181 0 ?114 127 168 171 0 0 32 30 174 203 0 127 171 144 0 +-.03 .02 .31 0 -
1 0 16 127 182 0 ?108 136 172 174 0 0 32 30 144 293 0 136 174 81 0 +-69388939039
0723e-32 0 .28 -1 0 0 30 81 295 0 84 144 68 0 --.015 0 .28 0 0 1 16 84 294 0 ?95
 74 136 81 0 0 32 17 108 0 96 152 100 110 122 127 0 123 +15 96 193 0 152 77 0 17
 152 0 96 119 108 112 173 155 0 0 +17 100 0 96 108 91 117 175 169 0 0 -17 123 0
 124 122 114 110 161 154 0 173 -15 124 191 0 123 177 0 17 114 0 124 123 121 109
 129 172 0 180 +17 161 0 138 149 173 109 123 154 0 0 +17 173 0 138 161 137 110 1
52 155 0 0 -17 137 0 138 173 134 112 95 84 0 152 -17 149 0 138 146 161 111 180 1
67 0 0 +17 180 0 179 129 113 109 149 167 0 161 -15 179 183 0 180 176 0 17 129 0
 179 178 180 103 114 172 0 121 -17 113 0 179 180 178 111 105 168 0 147 +17 178 0
 179 113 129 94 182 158 0 185 +17 105 0 184 101 147 94 113 168 0 178 -17 147 0 1
84 105 97 111 146 151 0 149 +15 184 189 0 147 181 0 17 97 0 184 147 101 116 91 9
9 0 146 +17 101 0 184 97 105 90 185 183 0 175 -17 185 0 186 182 175 94 101 183 0
 0 +16 183 32 0 ?185 190 187 188 0 0 32 17 175 0 186 185 130 90 100 169 0 0 +15
 186 6 0 175 189 191 17 130 0 186 175 182 117 121 187 0 100 -16 169 12 0 ?175 18
7 167 195 0 0 32 16 187 17 0 ?121 183 169 193 0 0 32 30 195 14 0 169 192 193 0 +
-693889390390723e-32 .02 .31 1 0 0 31 192 378 0 143 141 195 0 +-693889390390723e
-32 918485099360515e-33 .31 0 0 1 1 0 0 .015 30 193 19 0 187 195 188 0 +-.03 .02
 .3 0 0 -1 30 188 34 0 183 193 157 0 +.03 .02 .26 1156482317317872e-31 0 -1 31 1
57 44 0 190 188 156 0 +-867361737988404e-32 .02 .23 0 -1 0 0 0 -1 .0125 16 190 4
2 0 ?194 158 183 157 0 0 32 17 194 0 191 194 194 0 199 190 0 0 +16 158 47 0 ?178
 99 190 156 0 0 32 15 191 10 0 194 189 0 17 199 0 200 199 199 0 194 190 0 0 -15
 200 185 0 199 197 198 14 255 197 186 0 ?189 181 200 69 196 -0 0 189 181 83 15 1
98 187 0 164 197 0 17 164 0 198 164 164 0 203 162 0 0 +17 203 0 150 203 203 0 16
4 162 0 0 -15 150 128 0 203 148 0 14 148 116 0 ?142 189 138 69 205 +0 0 142 189
 83 14 142 361 0 ?140 148 145 69 201 +0 0 140 148 83 14 189 1 0 ?148 197 186 69
 204 -0 0 148 197 83 50 205 169 0 148 204 202 0 +-693889390390723e-32 0 .255 0 -
1 0 1 0 0 13 83 204 0 0 0 0 0 0 75 77 14 77 194 0 ?177 0 206 69 66 -0 0 177 0 83
 14 177 192 0 ?176 77 124 69 79 +0 0 176 77 83 15 206 437 0 210 77 96 17 210 0 2
06 210 210 0 208 207 0 0 -17 208 0 209 208 208 0 210 207 0 0 +16 207 449 0 ?208
 211 0 215 0 0 32 16 211 446 0 ?213 143 207 212 0 0 32 31 215 472 0 207 212 141
 0 +0 3448693611727965e-34 .31 0 0 1 1 0 0 .00563214408289652 31 212 473 0 211 0
 215 0 +0 3448693611727965e-34 .2951 0 0 1 1 0 0 .00563214408289652 31 141 379 0
 93 215 192 0 +-693889390390723e-32 918485099360515e-33 .28 0 0 1 1 0 0 .015 17
 213 0 214 213 213 0 216 211 0 0 +16 143 337 0 ?119 93 211 192 0 0 32 17 119 0 9
6 98 152 135 131 143 0 118 +17 131 0 145 95 82 112 119 143 0 137 -15 214 462 0 2
13 220 0 17 216 0 217 216 216 0 213 211 0 0 -15 217 457 0 216 218 209 14 218 454
 0 ?220 140 217 69 219 -0 0 220 140 83 15 209 458 0 208 218 0 14 220 459 0 ?0 21
8 214 69 222 +0 0 0 218 83 14 140 365 0 ?218 142 87 69 225 -0 0 218 142 83 51 25
5 219 469 0 218 222 225 0 +0 3448693611727965e-34 .2951 0 0 1 .00563214408289652
 1 0 0 50 222 471 0 220 0 219 0 +-693889390390723e-32 .0025 .2951 0 0 1 1 0 0 50
 225 377 0 140 219 201 0 +-693889390390723e-32 .0025 .28 0 0 1 1 0 0 51 201 375
 0 142 225 204 0 +-693889390390723e-32 918485099360515e-33 .28 0 0 1 .015 1 0 0
 50 204 3 0 189 201 205 0 +-693889390390723e-32 .02 .255 0 -1 0 1 0 0 14 176 184
 0 ?181 177 179 69 202 +0 0 181 177 83 50 79 198 0 177 224 66 0 +-.03 .02 .3 -1
 0 0 0 0 1 50 224 197 0 181 196 79 0 +.03 .02 .26 -1 0 -1156482317317872e-31 -11
56482317317872e-31 0 1 14 181 190 0 ?197 176 184 69 224 -0 0 197 176 83 51 196 1
96 0 197 202 224 0 +-867361737988404e-32 .02 .23 0 -1 0 .0125 0 0 -1 51 202 195
 0 176 205 196 0 +-1040834085586084e-32 .02 .23 0 -1 0 .03 0 0 -1 17 121 0 124 1
14 122 103 130 187 0 182 +17 182 0 186 130 185 103 178 158 0 0 -19 78 205 0 32 0
 75 69 0 S0 74 4 CI16 index_map_offset0 0 1 dCCZ20 80 3 0 0 221 73 67 0 0 0 0 0
 0 0 0 0 0 0 0 0 0 0 0 0 81 1 221 524 223 32 0 73 0 0 226 81 1 73 525 227 32 221
 67 0 0 229 80 7 CCCCCDI12 legal_owners0 17 1 lCZ1 227 5 228 8038 0 0 0 0 0 0 0
 0 0 TTTTTTTTTTTTTFTFT10 98 255 6 229 80 97 114 116 32 51 79 255 14 228 SDL/TYSA
_UNAME80 1 223 230 232 8040 0 0 0 0 3 5 0 0 0 TTTFFFFFFFFFFFFFF2 83 255 3 226 .2
31372549019608 .380392156862745 .705882352941177 79 17 232 SDL/TYSA_COLOUR_280 1
 5 235 234 8017 0 0 0 0 0 0 0 0 0 TTTTTTTTTTTTTFTFT3 84 255 6 76 Part 379 13 234
 SDL/TYSA_NAME80 1 13 231 233 9000 0 0 0 0 3 5 0 0 0 FTFFFFFFFFFFFFFFF3 84 17 65
 MeAewV4uvTCPNyJDF79 14 233 BTI/InstanceId81 1 54 432 5 19 237 0 0 0 240 70 57 0
 4 T19 0 0 3 20 1 239 239 13 60 5 0 19 0 236 0 0 238 0 51 59 26 0 241 245 0 242
 +0 0 .150002 0 0 -1 .05 -1 0 0 38 12 CCCCCCCCCCCA17 intersection_data204 0 Z56
 62 0 243 244 0 0 +59 246 250 248 248 247 29 58 211 0 64 249 0 -.035 0 .13 19 61
 1 0 19 238 0 254 0 V0 16 62 213 0 ?255 0 252 253 251 251 19 18 64 209 0 258 0 2
60 58 ?19 17 258 0 256 259 257 64 261 265 0 255 +18 260 45 0 263 64 262 249 ?19
 17 263 0 264 266 270 260 268 267 0 269 +18 262 114 0 271 260 275 272 ?19 29 249
 47 0 260 272 58 .05 0 .0907864035883649 29 272 160 0 262 273 249 -.05 0 .15 29
 273 161 0 275 274 272 .05 0 .15 18 275 115 0 277 262 280 273 ?19 29 274 162 0 2
80 279 273 -.05 0 .0907864035883649 18 280 113 0 270 275 276 274 ?19 29 279 393
 0 276 278 274 -.035 0 .15 18 276 322 0 281 280 282 279 ?19 29 278 394 0 282 284
 279 .035 0 .15 18 282 307 0 283 276 285 278 ?19 29 284 395 0 287 290 278 .035 0
 .23 18 287 314 0 289 286 288 284 ?19 29 290 396 0 288 292 284 .035 0 .13 18 288
 312 0 259 287 295 290 ?19 29 292 398 0 295 294 290 -.035 0 .23 18 295 323 0 291
 288 0 292 ?19 29 294 399 0 285 293 292 .035 -.025 .23 18 285 320 0 296 282 300
 294 ?19 29 293 400 0 300 297 294 .035 -.025 .13 18 300 318 0 298 285 299 293 ?1
9 29 297 401 0 299 301 293 -.035 -.025 .13 18 299 316 0 305 300 286 297 ?19 29 3
01 402 0 286 0 297 -.035 -.025 .23 18 286 310 0 303 299 287 301 ?19 17 303 0 302
 304 261 286 305 309 0 310 -15 302 337 0 307 308 0 17 304 0 302 307 303 295 306
 313 0 315 +17 261 0 302 303 255 299 258 265 0 257 -17 305 0 311 298 310 299 303
 309 0 261 +16 309 295 0 ?305 314 312 316 0 0 19 17 310 0 311 305 296 286 320 31
2 0 306 +15 311 361 0 310 318 0 17 296 0 311 310 298 285 317 319 0 321 +17 320 0
 325 323 306 285 310 312 0 0 -16 312 292 0 ?310 309 322 324 0 0 19 17 306 0 325
 320 315 286 304 313 0 0 -15 325 333 0 315 326 0 17 315 0 325 306 323 295 330 32
7 0 0 +16 313 262 0 ?304 267 265 328 0 0 19 16 267 88 0 ?263 329 313 332 0 0 19
 16 265 270 0 ?258 313 335 334 0 0 19 30 328 377 0 313 334 332 0 +-.035 -.025 .2
3 0 1 0 30 334 378 0 265 331 328 0 +-.035 -.025 .13 0 1 0 31 332 156 0 267 328 3
33 0 +0 0 .15 0 -1 0 0 0 -1 .0775 30 333 155 0 336 332 337 0 +0 0 .15 1 0 0 16 3
36 106 0 ?339 243 338 333 329 338 19 31 337 24 0 340 333 342 0 +0 0 .03 0 0 -1 -
1 0 0 .05 16 340 18 0 ?345 344 341 337 0 0 19 31 342 27 0 341 337 343 0 -0 0 .15
 0 0 1 1 0 0 .05 16 341 22 0 ?347 340 243 342 0 0 19 30 343 48 0 344 342 350 0 +
.05 0 .150002 0 0 -1 16 344 46 0 ?349 346 340 343 0 0 19 38 350 52 0 346 343 244
 0 +59 348 351 355 352 353 16 346 50 0 ?354 252 344 350 0 0 19 30 244 55 0 252 3
50 56 0 --.05 0 .150002 0 0 -1 51 348 152 0 356 360 246 358 -0 -.300311931395720
5 .15 0 1 0 .0775 0 0 1 40 255 11 351 0 1 11 .003694960320860995 .39421663588178
85 ??.05 0 .0907864035883649 .0478622116360018 -.01446404844124136 .089045437436
4759 .0419666456618361 -.0271808876215236 .0848459467730987 .03142603920672105 -
.0388896394914845 .0791575405580973 .01540705291333105 -.0475670339681362 .07404
69044704179 -.00122522563405076 -.0499849859672449 .0725096856236493 -.015418330
88582675 -.0475633795339982 .0740491930741012 -.0280090890011722 -.0414184854059
684 .0777383854780118 -.03929683834920285 -.03091534401808625 .0832017328386685
 -.0476313093306674 -.01520718157471265 .0888648352300717 -.05 876018493291501e-
33 .0907864035883649 41 3 CI8 term_use0 0 1 cCZ1 355 L?.05 0 .0907864035883649 4
1 1 352 L?-.05 876018493291501e-33 .0907864035883649 204 2 17 INTERSECTION_DATA1
7 Intersection data7 uv_type0 0 1 u6 values0 1 1 fT44 353 4 3.141592653589795 .0
592155964116351 2.440358289006725 .3003119313957205 3.43506825895095 .0609565625
635241 2.475934483239425 .285847882954479 3.716334047701795 .0651560532269014 2.
569366268772 .273131043774197 4.032739045857745 .0708444594419027 2.724069875741
575 .261422291904236 4.3991505911166 .0759550955295821 2.94145862826408 .2527448
974275845 4.73689594610405 .0774923143763507 3.1574026752386 .2503269454284755 5
.02586447515937 .0759528069258988 3.341875167167525 .252748551861722 5.306994207
21567 .0722636145219882 3.511369745864745 .258893445989752 5.61659870381119 .066
8002671613315 3.673358316336975 .269396587377634 5.974145962517 .061137164769928
3 3.803468326672315 .285104749821008 1752036986583e-29 .0592155964116351 3.84282
701817286 .3003119313957205 14 356 135 0 ?326 357 359 60 348 +0 0 326 357 254 50
 360 153 0 236 364 348 0 +0 0 .15 0 -1 0 1 0 0 51 246 151 0 365 348 362 363 --12
14306433183764e-32 -.3003119313957205 .13 0 1 0 .0125 0 0 1 141 255 358 350 358
 358 348 14 365 130 0 ?0 241 361 60 246 -0 0 0 241 254 50 362 23 0 357 246 245 0
 +-.025 0 .03 0 0 1 1 0 0 141 363 56 363 363 246 14 357 9 0 ?356 368 370 60 362
 -0 0 356 368 254 50 245 25 0 366 362 59 0 +0 0 .15 0 0 1 1 0 0 14 366 6 0 ?368
 236 369 60 245 +0 0 368 236 254 14 368 56 0 ?357 366 367 60 59 +241 241 357 366
 254 14 236 144 0 ?366 0 264 60 360 +0 0 366 0 254 15 369 8 0 371 366 0 13 254 3
 0 0 0 0 0 0 61 236 17 371 0 369 339 277 262 347 341 0 0 -17 339 0 369 375 371 2
76 271 336 0 0 +17 277 0 369 371 375 275 373 329 0 266 +17 347 0 372 349 374 275
 371 341 0 0 +15 372 17 0 354 368 0 17 349 0 372 354 347 260 266 344 0 0 +17 374
 0 372 347 354 262 270 252 0 371 +17 354 0 372 374 349 280 269 346 0 0 +17 270 0
 264 263 271 280 374 252 0 268 -16 252 53 0 ?374 62 346 244 0 0 19 15 264 215 0
 376 236 0 17 271 0 264 270 380 262 339 336 0 374 -17 268 0 359 269 269 280 263
 267 0 354 -15 359 138 0 268 356 0 17 269 0 359 268 268 260 354 346 0 349 -17 38
0 0 264 271 378 276 255 62 0 339 -17 378 0 264 380 376 64 259 377 0 0 -17 255 0
 302 261 307 64 380 62 0 378 +17 307 0 302 255 304 276 291 251 0 380 +17 291 0 3
79 330 281 295 307 251 0 304 -16 251 254 0 ?307 377 327 253 62 62 19 16 377 265
 0 ?259 381 251 385 0 0 19 16 327 248 0 ?315 251 382 383 0 0 19 30 253 383 0 251
 383 385 0 +-.035 0 .18 0 0 -1 31 383 384 0 327 384 253 0 +-1387778780781446e-32
 0 .23 0 -1 0 0 0 -1 .035 31 385 382 0 377 253 387 0 +-1387778780781446e-32 0 .1
3 0 -1 0 0 0 -1 .035 30 387 381 0 390 385 389 0 +.035 0 .18 0 0 1 16 390 281 0 ?
386 388 381 387 381 381 19 30 389 380 0 391 387 331 0 +.035 -.025 .23 0 1 0 16 3
91 251 0 ?323 335 319 389 0 0 19 30 331 379 0 335 389 334 0 +.035 -.025 .13 0 1
 0 16 335 289 0 ?392 265 391 331 0 0 19 17 392 0 394 386 317 288 393 335 0 376 +
15 394 355 0 386 395 0 17 386 0 394 289 392 282 376 390 0 373 +17 317 0 394 392
 321 300 296 319 0 0 -17 393 0 256 257 259 300 392 335 0 317 -17 376 0 264 378 3
73 288 386 390 0 0 -17 373 0 264 376 266 282 277 329 0 375 -17 266 0 264 373 263
 275 349 344 0 347 -16 329 202 0 ?277 338 267 333 338 336 19 17 375 0 369 277 33
9 282 281 338 0 0 +17 281 0 379 291 283 276 375 338 0 307 -16 338 197 0 ?375 336
 329 333 336 329 19 15 379 365 0 281 397 400 17 283 0 379 281 330 282 289 381 0
 386 -17 330 0 379 283 291 287 315 327 0 0 -17 289 0 394 321 386 287 283 381 0 3
23 +16 381 286 0 ?289 390 377 387 390 390 19 17 321 0 394 317 289 285 323 391 0
 320 -17 323 0 325 315 320 287 321 391 0 330 +14 397 362 0 ?241 318 379 60 399 -
0 0 241 318 254 15 400 366 0 396 397 0 17 396 0 400 396 396 0 398 382 0 0 +17 39
8 0 402 398 398 0 396 382 0 0 -16 382 304 0 ?396 327 0 384 0 0 19 31 384 385 0 3
82 405 383 0 +-867361737988404e-32 0 .23 0 -1 0 0 0 -1 .0125 30 405 387 0 319 40
4 384 0 +.035 -.025 .18 0 0 1 16 319 301 0 ?296 391 314 405 0 0 19 31 404 388 0
 314 316 405 0 +-1387778780781446e-32 -.025 .13 0 -1 0 0 0 -1 .035 16 314 298 0
 ?298 319 309 404 0 0 19 30 316 389 0 309 324 404 0 +-.035 -.025 .18 0 0 -1 31 3
24 390 0 312 401 316 0 +-1387778780781446e-32 -.025 .23 0 -1 0 0 0 -1 .035 31 40
1 391 0 322 403 324 0 +-867361737988404e-32 -.025 .23 0 -1 0 0 0 -1 .0125 16 322
 273 0 ?406 312 388 401 0 0 19 31 403 392 0 388 0 401 0 +-1214306433183764e-32 -
.025 .13 0 -1 0 0 0 -1 .0125 16 388 276 0 ?410 322 390 403 0 0 19 17 410 0 361 4
10 410 0 407 388 0 0 +15 361 220 0 410 365 408 17 407 0 409 407 407 0 410 388 0
 0 -15 409 359 0 407 318 411 14 318 356 0 ?397 395 409 60 415 +0 0 397 395 254 1
5 411 360 0 413 318 311 17 413 0 411 413 413 0 406 322 0 0 -17 406 0 412 406 406
 0 413 322 0 0 +15 412 345 0 406 414 402 14 414 342 0 ?395 419 412 60 364 +0 0 3
95 419 254 15 402 346 0 398 414 0 14 395 352 0 ?318 414 394 60 420 -0 0 318 414
 254 14 419 338 0 ?414 308 256 60 417 -0 0 414 308 254 51 364 370 0 414 418 360
 0 --867361737988404e-32 -.025 .23 0 1 0 .0125 0 0 1 51 418 371 0 326 416 364 0
 --1387778780781446e-32 -.025 .23 0 1 0 .035 0 0 1 14 326 330 0 ?308 356 325 60
 418 -0 0 308 356 254 50 416 372 0 308 417 418 0 +-.035 -.025 .18 1 0 0 0 0 -1 1
4 308 334 0 ?419 326 302 60 416 -0 0 419 326 254 51 417 373 0 419 420 416 0 --13
87778780781446e-32 -.025 .13 0 1 0 .035 0 0 1 50 420 374 0 395 399 417 0 +.035 -
.025 .18 -1 0 0 0 0 1 50 399 375 0 397 415 420 0 +-.0125 0 .2 0 -1 0 1 0 0 50 41
5 376 0 318 0 399 0 +-.0125 -.025 .2 0 -1 0 1 0 0 15 256 341 0 259 419 0 17 259
 0 256 393 258 288 378 377 0 392 +15 408 133 0 423 365 0 17 423 0 408 423 423 0
 425 243 0 0 +17 425 0 421 425 425 0 423 243 0 0 -16 243 85 0 ?423 341 336 56 0
 0 19 15 421 61 0 425 241 0 14 241 14 0 ?365 397 421 60 59 +368 368 365 397 254
 17 298 0 311 296 305 300 257 314 0 393 +17 257 0 256 258 393 299 298 314 0 0 -1
5 367 16 0 424 368 372 17 424 0 367 424 424 0 345 340 0 0 -17 345 0 370 345 345
 0 424 340 0 0 +15 370 13 0 345 357 0 19 238 4 0 19 0 61 60 0 S0 40 20 250 0 1 2
0 .000735461473485526 .347544909381216 ??-1214306433183764e-32 -.05 .1425 .00406
60234873364 -.0498344002973892 .1418202137459704 .00767243168780611 -.0494078312
820544 .13986832265362 .0104897359443678 -.048887272779502 .1367981938643612 .01
21594579042624 -.0484989441480376 .1328978584289902 .01243565291033628 -.0484288
605760413 .1287332969196988 .01137136794028852 -.0486897524245768 .1248094324812
62 .0090883181083055 -.0491670873040314 .1214178980452196 .00572986956604092 -.0
496706009099564 .118890607813379 .00169076330907791 -.0499714050175966 .11761487
5073998 -.002444752221860945 -.0499401961006733 .1177414035642858 -.006247790059
5491 -.0496081154587815 .1191734068437112 -.00942775431433329 -.0491031307412121
 .1217922324235776 -.01162360406988392 -.0486301534896465 .1254019755952606 -.01
24911964715823 -.0484145640350952 .1295309470090384 -.0119706164598035 -.0485458
993280821 .133599214021461 -.0101856465313572 -.0489515332215269 .13724586811488
12 -.00724807572250809 -.049471864714409 .1401840757224594 -.00342560323029123 -
.0498825143964157 .1420214492682296 -540040429582053e-32 -.05 .1425 41 1 248 H?-
540040429582053e-32 -.05 .1425 204 80 247 4 4.71238898038469 .007502 0 .25031193
13957205 4.63097861389432 .00818178625402954 .3313098027970955 .250477531098331
 4.55833167897339 .01013367734638004 .660858120938553 .250904100113666 4.5010239
7889039 .01320380613563882 .995771638018633 .2514246586162185 4.46673661402473 .
01710414157100965 1.336839174927618 .251812987247683 4.46103764540923 .021268703
0803012 1.672306817193065 .251883070819679 4.48295398742667 .025192567518738 1.9
9900887127683 .2516221789711435 4.52960654114888 .0285841019547804 2.32755466510
7595 .251144844091689 4.59753926884996 .0311113921866211 2.66541032297841 .25064
1330485764 4.67856726641517 .032387124926002 3.00591570969316 .250340526378124 4
.76130352824871 .03226059643571425 3.338441671845925 .250371735295047 4.83767226
34656 .0308285931562888 3.664987295661635 .250703815936939 4.90207961343272 .028
20976757642235 3.99605858850637 .2512088006545085 4.94700761100501 .024600024404
73925 4.335701788018025 .251681777906074 4.96488739489351 .02047105299096155 4.6
748559294065 .2518973673606255 4.95414951283901 .01640278597853895 5.00446101228
071 .2517660320676385 4.91753787098659 .01275613188511884 5.33071195487832 .2513
603981741935 4.85786305637718 .0098179242775405 5.66464557885979 .25084006668131
15 4.78095475668513 .00798055073177037 6.00558537310265 .250429416999305 4.71238
898038469 .007502 539412802881369e-30 .2503119313957205 141 242 350 422 422 59 1
41 422 56 242 242 59 74 20 239 3 0 0 426 237 54 0 0 0 0 0 0 0 0 0 0 0 0 0 0 0 0
 0 81 1 426 430 223 19 0 237 0 0 430 81 1 237 431 227 19 426 54 0 0 428 98 6 428
 80 97 114 116 32 50 83 3 430 .647058823529412 .647058823529412 .647058823529412
 84 6 240 Part 284 17 53 MGTRhWBuAVICoXQBC81 1 42 156 5 39 427 0 0 0 429 70 44 0
 4 T39 0 0 3 20 1 431 431 13 46 69 0 39 0 435 0 0 433 0 50 50 116 0 435 432 0 0
 +-.03 0 0 0 0 -1 -1 0 0 31 48 120 0 49 434 0 0 +0 0 .03 0 0 -1 -1 0 0 .05 19 47
 79 0 39 433 0 436 0 V0 16 49 93 0 ?440 0 437 48 0 0 39 17 440 0 438 440 440 0 4
39 49 0 0 +16 437 88 0 ?442 49 445 434 0 0 39 17 442 0 444 442 442 0 441 437 0 0
 +16 445 83 0 ?443 437 446 447 0 0 39 31 434 119 0 437 447 48 0 +0 0 .04 0 0 -1
 -1 0 0 .05 31 447 118 0 445 449 434 0 +0 0 .04 0 0 -1 -1 0 0 .06 31 449 117 0 4
46 0 447 0 +0 0 0 0 0 -1 -1 0 0 .06 16 446 81 0 ?448 445 0 449 0 0 39 17 448 0 4
50 448 448 0 452 446 0 0 +15 450 134 0 448 435 0 17 452 0 455 452 452 0 448 446
 0 0 -15 455 85 0 452 454 0 14 454 86 0 ?0 451 453 46 457 +0 0 0 451 436 14 451
 91 0 ?454 460 444 46 459 +0 0 454 460 436 15 453 130 0 443 454 455 51 457 112 0
 454 0 459 0 +0 0 .015 0 0 -1 .06 -1 0 0 13 436 78 0 0 0 0 0 0 47 435 14 435 109
 0 ?456 0 450 46 50 +0 0 456 0 436 14 456 101 0 ?460 435 458 46 432 +0 0 460 435
 436 14 460 96 0 ?451 456 438 46 461 +0 0 451 456 436 15 458 100 0 439 456 0 50
 432 115 0 456 461 50 0 +-.025 0 .03 0 0 1 1 0 0 51 461 114 0 460 459 432 0 -0 0
 .015 0 0 -1 .05 -1 0 0 50 459 113 0 451 457 461 0 +-.055 0 .04 0 0 1 1 0 0 17 4
39 0 458 439 439 0 440 49 0 0 -15 438 132 0 440 460 465 15 465 95 0 441 460 0 17
 441 0 465 441 441 0 442 437 0 0 -17 443 0 453 443 443 0 462 445 0 0 +17 462 0 4
63 462 462 0 443 445 0 0 -15 463 90 0 462 451 0 15 444 131 0 442 451 463 19 433
 68 0 39 0 47 46 0 S0 74 20 431 3 0 0 464 427 42 0 0 0 0 0 0 0 0 0 0 0 0 0 0 0 0
 0 81 1 464 154 223 39 0 427 0 0 466 81 1 427 155 227 39 464 42 0 0 470 98 6 470
 80 97 114 116 32 49 83 3 466 .615686274509804 .811764705882353 .929411764705882
 84 6 429 Part 184 17 43 MkthOTa7lSulkTgS581 1 34 37 5 18 468 0 0 0 467 70 35 0
 4 T18 0 0 3 20 1 469 469 13 33 5 0 18 0 474 0 0 475 0 51 31 26 0 472 473 0 0 -0
 3448693611727965e-34 .325002 0 0 -1 .00563214408289652 -1 0 0 31 38 27 0 471 47
8 0 0 +0 3448693611727965e-34 .325 0 0 1 1 0 0 .00563214408289652 19 40 1 0 18 4
75 0 480 0 V0 16 36 18 0 ?476 0 471 478 0 0 18 17 476 0 479 476 476 0 477 36 0 0
 +16 471 22 0 ?481 36 0 38 0 0 18 31 478 24 0 36 0 38 0 +0 3448693611727965e-34
 .2951 0 0 1 1 0 0 .00563214408289652 17 481 0 485 481 481 0 483 471 0 0 +15 485
 8 0 481 474 0 17 483 0 482 483 483 0 481 471 0 0 -15 482 12 0 483 472 0 14 472
 9 0 ?484 474 479 33 31 -0 0 484 0 480 14 484 13 0 ?0 472 486 33 490 -0 0 474 47
2 480 14 474 6 0 ?472 0 485 33 473 +0 0 0 484 480 15 479 11 0 476 472 482 13 480
 3 0 0 0 0 0 0 40 472 50 473 25 0 474 490 31 0 +-.00500000000000006 0 .325 0 0 1
 1 0 0 50 490 23 0 484 0 473 0 +-693889390390723e-32 .0025 .2951 0 0 1 1 0 0 15
 486 17 0 477 484 0 17 477 0 486 477 477 0 476 36 0 0 -19 475 4 0 18 0 40 33 0 S
0 74 20 469 3 0 0 488 468 34 0 0 0 0 0 0 0 0 0 0 0 0 0 0 0 0 0 81 1 488 35 223 1
8 0 468 0 0 487 81 1 468 36 227 18 488 34 0 0 489 98 6 489 80 97 114 116 32 52 8
3 3 487 .917647058823529 .917647058823529 .917647058823529 84 6 467 Part 484 17
 28 Mle5RWHtf83Fu2z+H81 1 16 686 5 10 491 0 0 0 495 70 17 0 4 T10 0 0 3 20 1 492
 492 13 20 287 0 10 0 493 0 0 494 0 51 21 605 0 497 500 0 0 +.017 -.005 .333 0 -
1 0 .008 0 0 -1 30 22 512 0 25 499 0 0 -.025 -.005 .392 0 1 0 29 23 474 0 27 496
 0 -.017 -.005 .4 19 24 108 0 10 494 0 498 0 V0 16 25 510 0 ?501 0 502 22 0 0 10
 18 27 471 0 504 0 503 23 ?10 17 504 0 505 507 510 27 509 506 0 508 +18 503 467
 0 512 27 515 496 ?10 17 512 0 514 511 513 503 516 520 0 517 +18 515 463 0 501 5
03 518 519 ?10 29 496 470 0 503 519 23 .017 -.005 .4 29 519 466 0 515 521 496 .0
25 -.005 .392 29 521 462 0 518 525 519 .025 -.005 .333 18 518 459 0 523 515 522
 521 ?10 29 525 448 0 522 524 521 -.025 -.005 .392 18 522 445 0 529 518 530 525
 ?10 29 524 444 0 530 527 525 -.025 -.005 .333 18 530 441 0 528 522 526 524 ?10
 29 527 420 0 526 533 524 .025 .005 .392 18 526 417 0 535 530 531 527 ?10 29 533
 416 0 531 534 527 .025 .005 .333 18 531 413 0 532 526 536 533 ?10 29 534 412 0
 536 540 533 .017 .005 .4 18 536 409 0 538 531 537 534 ?10 29 540 408 0 537 539
 534 -.017 .005 .4 18 537 405 0 541 536 545 540 ?10 29 539 404 0 545 543 540 -.0
25 .005 .392 18 545 401 0 542 537 544 539 ?10 29 543 400 0 544 546 539 -.025 .00
5 .333 18 544 397 0 550 545 547 543 ?10 29 546 386 0 547 548 543 -.017 -.005 .32
5 18 547 383 0 549 544 552 546 ?10 29 548 382 0 552 555 546 .017 -.005 .325 18 5
52 379 0 554 547 551 548 ?10 29 555 378 0 551 553 548 -.017 .005 .325 18 551 375
 0 556 552 557 555 ?10 29 553 374 0 557 559 555 .017 .005 .325 18 557 371 0 558
 551 560 553 ?10 29 559 241 0 562 565 553 -.015 .005 .4 18 562 206 0 564 561 563
 559 ?10 29 565 242 0 563 567 559 -.015 .005 .335 18 563 210 0 570 562 569 565 ?
10 29 567 243 0 569 566 565 .01499999999999984 .005 .335 18 569 214 0 568 563 57
1 567 ?10 29 566 244 0 571 575 567 .01499999999999984 .005 .4 18 571 218 0 572 5
69 0 566 ?10 29 575 94 0 560 573 566 -.015 -.005 .4 18 560 92 0 574 557 576 575
 ?10 29 573 89 0 576 580 575 -.015 -.005 .335 18 576 87 0 578 560 577 573 ?10 29
 580 84 0 577 579 573 .01499999999999984 -.005 .335 18 577 82 0 584 576 561 580
 ?10 29 579 79 0 561 0 580 .01499999999999984 -.005 .4 18 561 77 0 511 577 562 5
79 ?10 17 511 0 514 585 512 561 517 582 0 583 +15 514 6 0 581 588 0 17 585 0 514
 590 511 577 586 589 0 587 -17 517 0 591 595 583 503 511 582 0 593 -16 582 468 0
 ?511 589 592 594 0 0 10 17 583 0 591 517 572 561 596 600 0 586 -15 591 265 0 51
7 598 0 17 572 0 591 583 595 571 597 599 0 596 +17 596 0 601 605 586 571 583 600
 0 602 +16 600 252 0 ?596 603 604 607 0 0 10 17 586 0 601 596 584 561 585 589 0
 0 +15 601 263 0 605 610 0 17 584 0 601 586 605 577 568 604 0 585 -16 589 32 0 ?
586 609 582 606 0 0 10 16 609 37 0 ?587 608 589 611 0 0 10 30 606 34 0 589 594 6
11 0 +.01499999999999984 -.005 .3675 0 0 1 30 594 29 0 582 612 606 0 +.02 -.005
 .4 -1 0 0 30 611 39 0 609 606 614 0 +-152655665885959e-30 -.005 .335 1 0 0 30 6
14 44 0 608 611 613 0 +-.015 -.005 .3675 293568588242229e-30 0 -1 16 608 42 0 ?6
15 617 609 614 0 0 10 30 613 49 0 617 614 620 0 +-.02 -.005 .4 -1 0 0 16 617 47
 0 ?508 619 608 613 0 0 10 30 620 54 0 619 613 616 0 +-.025 -.005 .3625 -1850371
707708595e-31 0 1 16 619 442 0 ?618 622 617 620 0 0 10 30 616 238 0 625 620 624
 0 +-.015 .005 .325 -1 0 0 16 625 372 0 ?621 623 0 616 0 0 10 30 624 237 0 623 6
16 626 0 +.025 .005 .3625 -1850371707708595e-31 0 1 16 623 414 0 ?630 599 625 62
4 0 0 10 30 626 236 0 599 624 627 0 +.02 .005 .4 -1 0 0 16 599 410 0 ?572 628 62
3 626 0 0 10 30 627 235 0 628 626 629 0 +.01499999999999984 .005 .3675 0 0 1 16
 628 178 0 ?602 631 599 627 0 0 10 30 629 234 0 631 627 635 0 +-152655665885959e
-30 .005 .335 1 0 0 16 631 174 0 ?633 632 628 629 0 0 10 30 635 233 0 632 629 63
4 0 +-.015 .005 .3675 293568588242229e-30 0 -1 16 632 170 0 ?639 640 631 635 0 0
 10 30 634 232 0 640 635 637 0 +-.02 .005 .4 -1 0 0 16 640 166 0 ?510 638 632 63
4 0 0 10 30 637 231 0 638 634 636 0 +-.025 .005 .3625 -1850371707708595e-31 0 1
 16 638 398 0 ?643 645 640 637 0 0 10 30 636 281 0 622 637 641 0 +-.015 -.005 .4
 0 1 0 16 622 249 0 ?564 644 619 636 0 0 10 30 641 282 0 644 636 642 0 +-.015 -.
005 .335 0 1 0 16 644 250 0 ?570 604 622 641 0 0 10 30 642 283 0 604 641 607 0 +
.01499999999999984 -.005 .335 0 1 0 16 604 251 0 ?568 600 644 642 0 0 10 30 607
 284 0 600 642 646 0 +.01499999999999984 -.005 .4 0 1 0 30 646 389 0 603 607 650
 0 -.017 -.005 .325 0 1 0 16 603 387 0 ?554 648 600 646 0 0 10 30 650 394 0 648
 646 647 0 +-.017 -.005 .325 0 1 0 16 648 392 0 ?649 651 603 650 0 0 10 31 647 4
23 0 651 650 655 0 -.017 .005 .333 0 -1 0 0 0 -1 .008 16 651 421 0 ?558 653 648
 647 0 0 10 31 655 428 0 653 647 652 0 -.017 .005 .392 0 -1 0 0 0 -1 .008 16 653
 426 0 ?535 654 651 655 0 0 10 31 652 433 0 654 655 656 0 --.017 .005 .392 0 -1
 0 0 0 -1 .008 16 654 431 0 ?541 660 653 652 0 0 10 31 656 438 0 660 652 657 0 -
-.017 .005 .333 0 -1 0 0 0 -1 .008 16 660 436 0 ?550 658 654 656 0 0 10 30 657 4
51 0 658 656 659 0 +-.025 .005 .392 0 1 0 16 658 449 0 ?662 665 660 657 0 0 10 3
0 659 456 0 665 657 664 0 --.025 -.005 .333 0 1 0 16 665 454 0 ?528 661 658 659
 0 0 10 31 664 477 0 661 659 663 0 +.017 -.005 .333 0 -1 0 0 0 -1 .008 16 661 47
5 0 ?523 520 665 664 0 0 10 31 663 482 0 520 664 666 0 +.017 -.005 .392 0 -1 0 0
 0 -1 .008 16 520 480 0 ?512 667 661 663 0 0 10 31 666 487 0 667 663 669 0 +-.01
7 -.005 .392 0 -1 0 0 0 -1 .008 16 667 485 0 ?529 668 520 666 0 0 10 31 669 492
 0 668 666 670 0 +-.017 -.005 .333 0 -1 0 0 0 -1 .008 16 668 490 0 ?549 506 667
 669 0 0 10 30 670 497 0 506 669 672 0 --.017 -.005 .4 0 1 0 16 506 495 0 ?504 6
75 668 670 0 0 10 30 672 502 0 675 670 499 0 +.017 -.005 .4 0 1 0 16 675 500 0 ?
595 502 506 672 0 0 10 30 499 507 0 502 672 22 0 +.025 .005 .333 0 1 0 16 502 50
5 0 ?674 25 675 499 0 0 10 17 674 0 671 630 673 531 677 502 0 680 +15 671 267 0
 630 679 0 17 630 0 671 501 674 526 680 623 0 676 +17 673 0 671 674 501 518 513
 592 0 677 -17 677 0 678 681 532 518 674 502 0 0 -17 680 0 685 558 535 531 630 6
23 0 0 -15 685 161 0 621 682 0 17 558 0 685 621 680 557 532 651 0 683 +17 535 0
 685 680 597 526 538 653 0 630 +17 597 0 685 535 602 536 572 599 0 0 -17 538 0 6
84 593 676 536 535 653 0 595 -15 684 573 0 516 686 0 17 593 0 684 516 538 503 59
5 675 0 0 -17 676 0 684 538 516 526 501 25 0 0 -17 595 0 591 572 517 536 593 675
 0 597 +17 516 0 684 676 593 515 512 520 0 0 -17 501 0 671 673 630 515 676 25 0
 513 +17 513 0 514 512 523 515 673 592 0 516 +17 523 0 514 513 690 518 681 661 0
 673 +16 592 460 0 ?513 582 645 612 0 0 10 16 645 380 0 ?688 592 638 687 0 0 10
 30 612 24 0 592 687 594 0 +.025 -.005 .3625 -1850371707708595e-31 0 1 30 687 9
 0 645 0 612 0 +-.015 -.005 .325 -1 0 0 17 688 0 689 649 554 547 690 645 0 694 +
15 689 269 0 688 493 0 17 649 0 689 683 688 551 694 648 0 621 +17 554 0 689 688
 683 552 695 603 0 690 +17 690 0 514 523 549 552 688 645 0 681 -17 694 0 692 693
 556 547 649 648 0 0 -15 692 531 0 693 691 0 17 693 0 692 698 694 530 549 668 0
 0 -17 556 0 692 694 698 551 550 660 0 649 -17 698 0 692 556 693 544 528 665 0 0
 -17 550 0 685 643 621 544 556 660 0 700 +17 643 0 685 541 550 545 700 638 0 0 +
17 621 0 685 550 558 551 683 625 0 0 +17 700 0 696 528 662 544 643 638 0 698 -15
 696 255 0 700 699 0 17 528 0 696 618 700 530 698 665 0 581 +17 662 0 696 700 61
8 545 697 658 0 643 +17 618 0 696 662 528 522 581 619 0 697 +17 697 0 701 705 54
2 522 662 658 0 0 -15 701 552 0 705 703 0 17 705 0 701 509 697 27 529 667 0 0 -1
7 542 0 701 697 509 545 541 654 0 662 -17 509 0 701 542 705 537 504 506 0 0 -17
 541 0 685 702 643 537 542 654 0 510 +17 702 0 685 639 541 562 510 640 0 704 -17
 510 0 505 504 564 537 702 640 0 509 +15 505 257 0 510 706 0 17 564 0 505 510 50
7 562 574 622 0 702 +17 507 0 505 564 504 560 508 617 0 710 -17 574 0 708 615 70
4 560 564 622 0 507 -15 708 259 0 704 707 0 17 615 0 708 570 574 576 710 608 0 0
 +17 704 0 708 574 570 562 639 632 0 0 -17 570 0 708 704 615 563 578 644 0 709 +
17 639 0 685 633 702 563 704 632 0 0 +17 633 0 685 602 639 569 709 631 0 0 +17 6
02 0 685 597 633 571 605 628 0 0 +17 709 0 711 578 568 563 633 631 0 639 -15 711
 261 0 709 715 0 17 578 0 711 587 709 576 570 644 0 590 -17 568 0 711 709 587 56
9 584 604 0 605 +17 587 0 711 568 578 577 590 609 0 0 +17 605 0 601 584 596 569
 602 628 0 633 -17 590 0 514 710 585 576 587 609 0 615 -17 710 0 514 508 590 560
 615 608 0 0 -17 508 0 514 529 710 27 507 617 0 705 +17 529 0 514 581 508 522 70
5 667 0 618 +17 581 0 514 549 529 530 618 619 0 693 -17 549 0 514 690 581 547 69
3 668 0 688 +14 715 262 0 ?707 610 711 20 712 +0 0 707 610 498 14 707 260 0 ?706
 715 708 20 713 +0 0 706 715 498 14 610 264 0 ?715 598 601 20 714 +0 0 715 598 4
98 50 712 274 0 715 713 714 0 +-152655665885959e-30 -.005 .335 0 0 1 1 0 0 13 49
8 109 0 0 0 0 0 0 24 493 14 493 270 0 ?679 0 689 20 717 +0 0 679 0 498 14 679 26
8 0 ?598 493 671 20 720 -0 0 598 493 498 50 717 278 0 493 720 719 0 +-.015 -.005
 .325 0 0 -1 -1 0 0 50 720 277 0 679 716 717 0 +.025 -.005 .3625 -1 0 -185037170
7708595e-31 -1850371707708595e-31 0 1 51 719 542 0 691 717 718 0 +-.017 -.005 .3
33 0 1 0 .008 0 0 1 14 691 530 0 ?703 682 692 20 719 +0 0 703 682 498 51 718 563
 0 703 719 500 0 +-.017 -.005 .392 0 -1 0 .008 0 0 -1 14 703 551 0 ?686 691 701
 20 718 +0 0 686 691 498 51 500 584 0 686 718 21 0 +.017 -.005 .392 0 1 0 .008 0
 0 1 14 686 572 0 ?497 703 684 20 500 +0 0 497 703 498 14 497 593 0 ?0 686 678 2
0 21 +0 0 0 686 498 15 678 594 0 681 497 0 17 681 0 678 695 677 552 523 661 0 0
 -17 695 0 678 532 681 557 554 603 0 0 -17 532 0 678 677 695 531 558 651 0 674 -
14 682 148 0 ?691 588 685 20 721 -0 0 691 588 498 14 588 1 0 ?682 699 514 20 722
 +0 0 682 699 498 50 721 230 0 682 722 724 0 +-.0125 .005 .2 0 -1 0 1 0 0 50 722
 3 0 588 0 721 0 +-.0125 -.005 .2 0 -1 0 1 0 0 50 724 271 0 699 721 723 0 +-.025
 -.005 .3625 -1 0 -1850371707708595e-31 -1850371707708595e-31 0 1 14 699 256 0 ?
588 706 696 20 724 +0 0 588 706 498 50 723 272 0 706 724 713 0 +-.02 -.005 .4 0
 0 -1 -1 0 0 14 706 258 0 ?699 707 505 20 723 -0 0 699 707 498 50 713 273 0 707
 723 712 0 +-.015 -.005 .3675 1 0 293568588242229e-30 293568588242229e-30 0 -1 5
0 716 276 0 598 714 720 0 +.02 -.005 .4 0 0 -1 -1 0 0 14 598 266 0 ?610 679 591
 20 716 -0 0 610 679 498 50 714 275 0 610 712 716 0 +.01499999999999984 -.005 .3
675 -1 0 0 0 0 1 17 683 0 689 554 649 557 621 625 0 695 -19 494 288 0 10 0 24 20
 0 S0 74 20 492 3 0 0 725 491 16 0 0 0 0 0 0 0 0 0 0 0 0 0 0 0 0 0 81 1 725 684
 223 10 0 491 0 0 727 81 1 491 685 227 10 725 16 0 0 730 98 6 730 80 97 114 116
 32 53 83 3 727 .768627450980392 .886274509803922 .952941176470588 84 6 495 Part
 584 17 15 MPiTrRUGOnDyYrcye74 20 8 3 0 0 6 2 9 0 0 0 0 0 0 0 0 0 0 0 0 0 0 0 0
 0 81 1 6 1 227 1 0 2 0 0 729 98 10 729 65 115 115 101 109 98 108 121 32 49 84 1
0 7 Assembly 11 0 
